<svg width="36" height="36" viewBox="0 0 36 36" fill="none" xmlns="http://www.w3.org/2000/svg">
<circle cx="17.5002" cy="17.5" r="15.5417" stroke="#3C3C3C"/>
<path d="M21.4659 8.14746V11.0257C21.4659 11.4045 21.7729 11.7115 22.1516 11.7115H25.0534V22.7947C25.0534 23.0076 24.8788 23.1858 24.6565 23.1858H13.8939C13.6717 23.1858 13.4971 23.0076 13.4971 22.7947V8.53848C13.4971 8.32561 13.6717 8.14746 13.8939 8.14746H21.4659Z" stroke="#3C3C3C"/>
<path fill-rule="evenodd" clip-rule="evenodd" d="M21.3862 11.6205L21.9659 7.64746L25.5554 11.2155L21.3862 11.6205Z" fill="#3C3C3C"/>
<path d="M18.7994 10.8141V13.6924C18.7994 14.0711 19.1064 14.3782 19.4851 14.3782H22.3869V25.4614C22.3869 25.6742 22.2123 25.8524 21.99 25.8524H11.2274C11.0052 25.8524 10.8306 25.6742 10.8306 25.4614V11.2051C10.8306 10.9922 11.0052 10.8141 11.2274 10.8141H18.7994Z" fill="white" stroke="#3C3C3C"/>
<path fill-rule="evenodd" clip-rule="evenodd" d="M18.7197 14.2871L19.2994 10.3141L22.8889 13.8821L18.7197 14.2871Z" fill="#3C3C3C"/>
</svg>
