<svg width="39" height="39" viewBox="0 0 39 39" fill="none" xmlns="http://www.w3.org/2000/svg">
<path fill-rule="evenodd" clip-rule="evenodd" d="M19.5 39C30.2696 39 39 30.2696 39 19.5C39 8.73045 30.2696 0 19.5 0C8.73045 0 0 8.73045 0 19.5C0 30.2696 8.73045 39 19.5 39Z" fill="black"/>
<path d="M8.88892 28.237L8.97208 28.4761C8.96169 28.4501 8.9305 28.367 8.88892 28.237ZM12.2624 22.7843C12.4131 21.49 12.9225 20.7675 13.879 20.0242C15.2512 19.021 16.9614 19.5876 16.9614 19.5876V16.2141C17.3772 16.2037 17.7931 16.2296 18.2037 16.292V20.6323C18.2037 20.6323 16.4936 20.0658 15.1213 21.069C14.1649 21.8123 13.6555 22.5348 13.5047 23.8291C13.4995 24.5308 13.6243 25.4509 14.2064 26.241C14.0609 26.163 13.9154 26.0746 13.7646 25.9759C12.4911 25.0818 12.2572 23.7355 12.2624 22.7843ZM25.2781 9.97647C24.3373 8.90048 23.9786 7.8089 23.8487 7.0448H25.0338C25.0338 7.0448 24.7999 9.05122 26.5205 11.0213L26.5464 11.0473C26.0786 10.7458 25.6524 10.3819 25.2781 9.97647ZM30.9907 13.0329V17.2848C30.9907 17.2848 29.4781 17.2225 28.3553 16.9262C26.7908 16.5103 25.7875 15.871 25.7875 15.871C25.7875 15.871 25.091 15.4136 25.039 15.3824V24.167C25.039 24.6556 24.9091 25.8771 24.5192 26.8959C24.0098 28.2266 23.2197 29.1051 23.0742 29.2818C23.0742 29.2818 22.1126 30.4669 20.4232 31.2622C18.9002 31.9796 17.5591 31.964 17.1589 31.9796C17.1589 31.9796 14.8458 32.0731 12.7614 30.6645C12.3092 30.3526 11.8881 29.9991 11.5035 29.6093L11.5139 29.6197C13.5983 31.0335 15.9114 30.9348 15.9114 30.9348C16.3116 30.9192 17.6527 30.9348 19.1757 30.2174C20.8651 29.4222 21.8267 28.237 21.8267 28.237C21.9722 28.0603 22.7623 27.1818 23.2717 25.8511C23.6616 24.8323 23.7915 23.6108 23.7915 23.1222V14.3428C23.8487 14.374 24.54 14.8314 24.54 14.8314C24.54 14.8314 25.5432 15.4707 27.1078 15.8866C28.2306 16.1829 29.7432 16.2452 29.7432 16.2452V12.9133C30.263 13.0329 30.7048 13.0641 30.9907 13.0329Z" fill="#EE1D52"/>
<path d="M29.7431 12.9081V16.24C29.7431 16.24 28.2305 16.1776 27.1077 15.8814C25.5431 15.4655 24.5399 14.8262 24.5399 14.8262C24.5399 14.8262 23.8434 14.3688 23.7914 14.3376V23.1221C23.7914 23.6108 23.6615 24.8323 23.2716 25.8511C22.7622 27.1818 21.9721 28.0602 21.8266 28.237C21.8266 28.237 20.865 29.4221 19.1756 30.2174C17.6526 30.9347 16.3115 30.9191 15.9113 30.9347C15.9113 30.9347 13.5982 31.0283 11.5138 29.6196L11.5034 29.6092C11.2851 29.3857 11.0772 29.1518 10.8849 28.9075C10.2195 28.0602 9.81408 27.0622 9.71012 26.7763V26.7711C9.54379 26.2773 9.20072 25.0818 9.24751 23.933C9.33067 21.9006 10.0168 20.6479 10.1987 20.336C10.6769 19.4836 11.3059 18.7195 12.044 18.0801C12.699 17.5291 13.4423 17.0873 14.2376 16.7806C15.1004 16.4168 16.0257 16.2244 16.9613 16.2088V19.5823C16.9613 19.5823 15.2512 19.0157 13.8789 20.019C12.9225 20.7623 12.4131 21.4848 12.2623 22.7791C12.2571 23.7303 12.491 25.0766 13.7697 25.9758C13.9205 26.0746 14.066 26.163 14.2116 26.2409C14.4351 26.5424 14.7054 26.8075 15.0172 27.0258C16.27 27.8523 17.3147 27.9095 18.6558 27.3741C19.5499 27.0154 20.2204 26.2097 20.5323 25.3105C20.7298 24.7491 20.7246 24.1877 20.7246 23.6056V7.0448H23.8434C23.9733 7.8089 24.3268 8.90048 25.2728 9.97646C25.6523 10.3819 26.0785 10.7458 26.5411 11.0472C26.6763 11.198 27.378 11.9257 28.2824 12.3779C28.7451 12.6118 29.2389 12.7886 29.7431 12.9081Z" fill="white"/>
<path d="M8.46777 25.7471L8.54574 25.9706C8.53535 25.9446 8.50416 25.8667 8.46777 25.7471Z" fill="#69C9D0"/>
<path d="M14.2376 16.7859C13.4371 17.0925 12.699 17.5344 12.0441 18.0854C11.3008 18.7247 10.677 19.494 10.1988 20.3465C10.0169 20.6584 9.33072 21.9059 9.24755 23.9435C9.20077 25.0974 9.54903 26.2878 9.71017 26.7816V26.7868C9.81413 27.0675 10.2196 28.0707 10.8849 28.9179C11.0772 29.1622 11.2852 29.3962 11.5035 29.6197C10.7965 29.1311 10.1728 28.5437 9.6374 27.8731C8.97726 27.0363 8.57181 26.0435 8.46785 25.7524V25.742C8.30152 25.2482 7.95326 24.0526 8.00523 22.8987C8.0884 20.8663 8.77454 19.6136 8.95647 19.3017C9.43468 18.4492 10.0584 17.6799 10.8017 17.0406C11.4567 16.4896 12.2 16.0477 12.9953 15.7411C13.4943 15.5331 14.0141 15.3824 14.5443 15.2836C15.3448 15.1433 16.1609 15.1329 16.9665 15.2473V16.2141C16.0257 16.2297 15.1005 16.422 14.2376 16.7859Z" fill="#69C9D0"/>
<path d="M23.8487 7.04479H20.7299V23.6056C20.7299 24.1877 20.7299 24.7491 20.5375 25.3105C20.2205 26.2045 19.5499 27.0154 18.6611 27.3741C17.32 27.9147 16.27 27.8523 15.0225 27.0258C14.7106 26.8127 14.4403 26.5476 14.2168 26.2461C15.2824 26.8127 16.2336 26.8023 17.4136 26.3293C18.3076 25.9706 18.9781 25.1597 19.29 24.2657C19.4875 23.7043 19.4823 23.1429 19.4823 22.5608V6H23.7915C23.7863 6 23.7395 6.41064 23.8487 7.04479ZM29.7432 11.9881V12.9081C29.239 12.7886 28.7451 12.6118 28.2825 12.3779C27.3833 11.9309 26.6815 11.198 26.5412 11.0472C26.7023 11.1512 26.8635 11.2448 27.035 11.3331C28.137 11.8789 29.213 12.0452 29.7432 11.9881Z" fill="#69C9D0"/>
</svg>
