<svg width="39" height="39" viewBox="0 0 39 39" fill="none" xmlns="http://www.w3.org/2000/svg">
<mask id="mask0" mask-type="alpha" maskUnits="userSpaceOnUse" x="0" y="0" width="39" height="39">
<circle cx="19.5" cy="19.5" r="19.5" fill="#C4C4C4"/>
</mask>
<g mask="url(#mask0)">
<rect x="-9.87744" y="-5.65143" width="58.8055" height="50.3029" fill="black"/>
<path d="M27.1583 9.96679L25.9473 9.20474L25.9438 10.1199L27.1548 10.8819L30.0638 8.74542C29.9629 8.51924 29.8341 8.30698 29.6845 8.11212L27.1583 9.96679Z" fill="#A2A2A2"/>
<path d="M30.3455 10.0607C30.3455 9.86587 30.3281 9.67449 30.2968 9.49007L29.6078 9.99462C29.6078 10.0155 29.6078 10.0399 29.6078 10.0607C29.6044 11.4108 28.5048 12.5104 27.1512 12.5069C25.7976 12.5035 24.7015 11.4039 24.705 10.0538C24.7085 8.70366 25.808 7.60409 27.1616 7.60757C27.6731 7.60757 28.1499 7.76763 28.5431 8.03905L29.1624 7.58321C28.6161 7.14129 27.9202 6.87336 27.1616 6.87336C25.4009 6.86988 23.9708 8.29654 23.9673 10.0538C23.9638 11.8145 25.387 13.2446 27.1477 13.2446C28.9119 13.2446 30.342 11.8214 30.3455 10.0607Z" fill="#A2A2A2"/>
<path d="M-2.22071 34.7247C-2.21723 32.9883 -1.24641 31.3181 0.420357 30.5073C2.75522 29.3694 5.57027 30.3368 6.70812 32.6717C7.84598 35.0065 6.87863 37.8216 4.54377 38.9594C3.84088 39.3039 3.09274 39.4535 2.36201 39.4361L-2.22071 34.7247ZM-2.80182 23.8994C-8.78685 26.8188 -11.2713 34.0357 -8.35189 40.0207C-5.43245 46.0057 1.78091 48.4868 7.76594 45.5708C13.751 42.6548 16.2355 35.4345 13.316 29.4495C10.3966 23.4644 3.17973 20.98 -2.80182 23.8994ZM-6.02747 17.2915C-15.6627 21.9891 -19.6608 33.6077 -14.9633 43.2429C-10.2657 52.8781 1.35291 56.8762 10.9881 52.1787C20.6233 47.4811 24.6215 35.8625 19.9239 26.2273C15.2264 16.5921 3.60774 12.5905 -6.02747 17.2915ZM-9.24964 10.6836C-22.535 17.1593 -28.0503 33.1832 -21.5712 46.4651C-15.092 59.747 0.92839 65.2657 14.2138 58.7866C27.4992 52.3074 33.011 36.287 26.5318 23.0016C20.0527 9.71627 4.03226 4.20447 -9.24964 10.6836Z" stroke="url(#paint0_linear)" stroke-width="3.50615" stroke-miterlimit="10"/>
</g>
<defs>
<linearGradient id="paint0_linear" x1="22.5174" y1="55.0334" x2="-17.5546" y2="14.4362" gradientUnits="userSpaceOnUse">
<stop stop-color="#F212FF"/>
<stop offset="0.35" stop-color="#5AAFFF"/>
<stop offset="0.4318" stop-color="#59B3FF"/>
<stop offset="0.5087" stop-color="#55BEFF"/>
<stop offset="0.5835" stop-color="#4FD1FF"/>
<stop offset="0.6567" stop-color="#46ECFF"/>
<stop offset="0.7" stop-color="#40FFFF"/>
</linearGradient>
</defs>
</svg>
