<?xml version="1.0" encoding="UTF-8"?>
<svg width="37px" height="37px" viewBox="0 0 37 37" version="1.1" xmlns="http://www.w3.org/2000/svg" xmlns:xlink="http://www.w3.org/1999/xlink">
    <!-- Generator: Sketch 51 (57462) - http://www.bohemiancoding.com/sketch -->
    <title>icon/sharing/viber</title>
    <desc>Created with Sketch.</desc>
    <defs>
        <circle id="path-1" cx="18.5" cy="18.5" r="18.5"></circle>
    </defs>
    <g id="icon/sharing/viber" stroke="none" stroke-width="1" fill="none" fill-rule="evenodd">
        <mask id="mask-2" fill="white">
            <use xlink:href="#path-1"></use>
        </mask>
        <use id="Mask" fill="#844EA3" xlink:href="#path-1"></use>
        <path d="M21.3884624,18.3199454 C21.170326,18.3199454 20.987292,18.1481943 20.9760091,17.9275506 C20.9070579,16.5259615 20.2463804,15.8389572 18.897445,15.7662451 C18.6692793,15.7537085 18.4950209,15.5593916 18.5075575,15.331226 C18.5200941,15.1043139 18.7131573,14.9275482 18.941323,14.9413385 C20.7215166,15.0366164 21.7106524,16.05584 21.8009157,17.8861799 C21.8121986,18.1143456 21.6366866,18.3086625 21.4097746,18.3199454 C21.4022526,18.3199454 21.3959844,18.3199454 21.3884624,18.3199454 Z M23.5085182,19.0300171 C23.5047572,19.0300171 23.5022499,19.0300171 23.4984889,19.0300171 C23.2703233,19.0250025 23.0897966,18.8357002 23.0948112,18.6075346 C23.1274063,17.1959162 22.7237286,16.0525806 21.8624659,15.1123375 C21.0049642,14.1746017 19.8277798,13.6631094 18.2619616,13.5477729 C18.0350496,13.5314754 17.8632985,13.3333975 17.8808497,13.1064855 C17.8971473,12.8783198 18.0952252,12.7078224 18.3221372,12.72412 C20.0835259,12.8532467 21.4788467,13.4687925 22.4717435,14.5544599 C23.4696548,15.6438883 23.9573276,17.0128822 23.9209715,18.6263394 C23.9159569,18.8507441 23.7316692,19.0300171 23.5085182,19.0300171 Z M25.6789706,19.8794956 C25.4520586,19.8794956 25.2677709,19.6964616 25.2665172,19.4695496 C25.2464587,16.9434298 24.5193374,15.0153045 23.0425289,13.5723448 C21.5832715,12.1519508 19.7391414,11.4223222 17.5615383,11.4072783 C17.3333727,11.404771 17.1503387,11.2192297 17.1515923,10.991064 C17.152846,10.764152 17.3383873,10.581118 17.5640456,10.581118 L17.5678066,10.581118 C19.9660534,10.5974156 22.0019931,11.4060246 23.6192113,12.9818721 C25.2389368,14.5627342 26.0713654,16.7440982 26.0914239,19.4632813 C26.0939312,19.691447 25.9108972,19.8782419 25.6827315,19.8794956 L25.6789706,19.8794956 Z M19.0014976,23.4398828 C19.0014976,23.4398828 19.5819411,23.4912828 19.8953554,23.1039026 L20.504633,22.3366642 C20.7979888,21.956806 21.5088126,21.7135965 22.2033389,22.1009766 C22.590719,22.3203667 23.2839916,22.7491175 23.7190108,23.0688002 C24.1816104,23.4085414 25.1256145,24.1945846 25.1281218,24.1970919 C25.5781848,24.5769502 25.6822384,25.1348277 25.376346,25.7227931 C25.376346,25.7253004 25.372585,25.7315687 25.372585,25.7353297 C25.057917,26.2906999 24.6366881,26.8122215 24.1038836,27.2973869 C24.098869,27.2998942 24.098869,27.3036552 24.0926007,27.3061625 C23.6563279,27.6709768 23.2263234,27.8778303 22.8038408,27.9292303 C22.7536945,27.9392595 22.6922653,27.9430205 22.6157922,27.9405132 C22.4327582,27.9417669 22.2497242,27.9154401 22.0691975,27.8565182 L22.0554073,27.8364596 C21.404759,27.6534256 20.3203453,27.194587 18.5125712,26.1979293 C17.3378942,25.5497884 16.361295,24.8891109 15.5363883,24.2309407 C15.1013692,23.8874385 14.6538135,23.4975511 14.1987358,23.0449807 C14.1836919,23.0299368 14.168648,23.0148929 14.1536041,22.999849 C14.1385602,22.9848051 14.1235163,22.9697613 14.1084725,22.9547174 C14.0921749,22.9396735 14.0783847,22.9246296 14.0633408,22.908332 C14.0482969,22.8945418 14.033253,22.8794979 14.0182091,22.864454 C13.5656388,22.4093764 13.1744976,21.960567 12.8309955,21.5255478 C12.1728253,20.7006412 11.5121478,19.724042 10.8652605,18.5493649 C9.86860283,16.7428445 9.40976419,15.6571771 9.2267302,15.0077825 L9.20667168,14.9939923 C9.14774977,14.8134656 9.12016931,14.6304316 9.12267662,14.446144 C9.11891565,14.3696709 9.12393028,14.3082417 9.13395954,14.2580954 C9.18410584,13.8368664 9.39095933,13.4068619 9.75577366,12.9693355 C9.75953463,12.9643208 9.76204194,12.9643208 9.76454926,12.9580525 C10.2509684,12.4252481 10.7712362,12.0040192 11.3278601,11.6893512 C11.3303675,11.6893512 11.3366358,11.6868439 11.3391431,11.6868439 C11.9283621,11.3809514 12.4862397,11.4837513 12.8648442,11.935068 C12.8686052,11.9375754 13.6546484,12.8815794 13.993136,13.3429254 C14.3140723,13.7779445 14.7428231,14.4712171 14.9609596,14.8585973 C15.3483397,15.5543772 15.1063838,16.265201 14.7252719,16.5573032 L13.9580336,17.1678344 C13.5719071,17.4799951 13.6220534,18.0604385 13.6220534,18.0604385 C13.6220534,18.0604385 14.7566134,22.3567227 19.0014976,23.4398828 Z" id="Combined-Shape" fill="#FFFFFF" fill-rule="nonzero" mask="url(#mask-2)"></path>
    </g>
</svg>