<svg width="39" height="39" viewBox="0 0 39 39" fill="none" xmlns="http://www.w3.org/2000/svg">
<circle cx="19.5" cy="19.5" r="19.5" fill="#ECECEC"/>
<path fill-rule="evenodd" clip-rule="evenodd" d="M15.5859 6.75H23.4141C30.5584 6.75 32.25 8.4416 32.25 15.5859V23.4141C32.25 30.5584 30.5584 32.25 23.4141 32.25H15.5859C8.4416 32.25 6.75 30.5584 6.75 23.4141V15.5859C6.75 8.4416 8.4416 6.75 15.5859 6.75Z" fill="#4680C2"/>
<path fill-rule="evenodd" clip-rule="evenodd" d="M27.6251 15.5319C27.751 15.136 27.6251 14.8481 27.0672 14.8481H25.2136C24.7457 14.8481 24.5298 15.1 24.4038 15.37C24.4038 15.37 23.45 17.6734 22.1184 19.1671C21.6865 19.599 21.4885 19.7429 21.2546 19.7429C21.1286 19.7429 20.9666 19.599 20.9666 19.203V15.5139C20.9666 15.046 20.8227 14.8301 20.4267 14.8301H17.5114C17.2235 14.8301 17.0435 15.046 17.0435 15.262C17.0435 15.7119 17.7094 15.8198 17.7814 17.0795V19.8149C17.7814 20.4088 17.6734 20.5167 17.4395 20.5167C16.8096 20.5167 15.28 18.1953 14.3622 15.5499C14.1822 15.028 14.0023 14.8301 13.5344 14.8301H11.6628C11.1229 14.8301 11.033 15.082 11.033 15.352C11.033 15.8378 11.6628 18.2853 13.9663 21.5245C15.4959 23.738 17.6734 24.9257 19.6349 24.9257C20.8227 24.9257 20.9666 24.6558 20.9666 24.2059V22.5323C20.9666 21.9924 21.0746 21.9024 21.4525 21.9024C21.7224 21.9024 22.2083 22.0464 23.3061 23.1081C24.5658 24.3678 24.7817 24.9437 25.4836 24.9437H27.3371C27.877 24.9437 28.1289 24.6738 27.985 24.1519C27.823 23.63 27.2112 22.8742 26.4193 21.9744C25.9874 21.4705 25.3396 20.9126 25.1416 20.6427C24.8717 20.2828 24.9437 20.1388 25.1416 19.8149C25.1236 19.8149 27.3911 16.6117 27.6251 15.5319Z" fill="white"/>
</svg>
