<?xml version="1.0" encoding="UTF-8"?>
<svg width="286px" height="286px" viewBox="0 0 286 286" version="1.1" xmlns="http://www.w3.org/2000/svg" xmlns:xlink="http://www.w3.org/1999/xlink">
    <!-- Generator: Sketch 48.2 (47327) - http://www.bohemiancoding.com/sketch -->
    <title>deezer</title>
    <desc>Created with Sketch.</desc>
    <defs></defs>
    <g id="Page-1" stroke="none" stroke-width="1" fill="none" fill-rule="evenodd">
        <g id="deezer">
            <g id="Group-3" transform="translate(6.000000, 5.000000)" fill="#000000">
                <circle id="Oval" cx="137.5" cy="137.5" r="137.5"></circle>
            </g>
            <g id="Deezer_logo" transform="translate(74.000000, 105.000000)" fill-rule="nonzero">
                <g id="g10" transform="translate(70.000000, 39.817596) scale(-1, 1) rotate(-180.000000) translate(-70.000000, -39.817596) translate(0.000000, 0.716586)">
                    <g id="g12">
                        <polygon id="path14" fill="#ED1C24" points="0 0.00529909818 25.4509257 0.00529909818 25.4509257 7.69640208 0 7.69640208"></polygon>
                        <polygon id="path16" fill="#ED1C24" points="0 10.0014971 25.4509257 10.0014971 25.4509257 17.6936583 0 17.6936583"></polygon>
                        <polygon id="path18" fill="#ED1C24" points="0 19.9987346 25.4509257 19.9987346 25.4509257 27.6908958 0 27.6908958"></polygon>
                        <polygon id="path20" fill="#F6836C" points="0 29.9980069 25.4509257 29.9980069 25.4509257 37.6869666 0 37.6869666"></polygon>
                        <polygon id="path22" fill="#F6836C" points="0 39.9975234 25.4509257 39.9975234 25.4509257 47.6864831 0 47.6864831"></polygon>
                        <polygon id="path24" fill="#FFF200" points="28.5362822 0.00529909818 53.988269 0.00529909818 53.988269 7.69640208 28.5362822 7.69640208"></polygon>
                        <polygon id="path26" fill="#FFF200" points="28.5362822 10.0014971 53.988269 10.0014971 53.988269 17.6936583 28.5362822 17.6936583"></polygon>
                        <polygon id="path28" fill="#FFF200" points="28.5362822 19.9987346 53.988269 19.9987346 53.988269 27.6908958 28.5362822 27.6908958"></polygon>
                        <polygon id="path30" fill="#EC008C" points="57.0725644 0.00529909818 82.5245512 0.00529909818 82.5245512 7.69640208 57.0725644 7.69640208"></polygon>
                        <polygon id="path32" fill="#EC008C" points="57.0725644 10.0014971 82.5245512 10.0014971 82.5245512 17.6936583 57.0725644 17.6936583"></polygon>
                        <polygon id="path34" fill="#EC008C" points="57.0725644 19.9987346 82.5245512 19.9987346 82.5245512 27.6908958 57.0725644 27.6908958"></polygon>
                        <polygon id="path36" fill="#F680C5" points="57.0725644 29.9980069 82.5245512 29.9980069 82.5245512 37.6869666 57.0725644 37.6869666"></polygon>
                        <polygon id="path38" fill="#F680C5" points="57.0725644 39.9975234 82.5245512 39.9975234 82.5245512 47.6864831 57.0725644 47.6864831"></polygon>
                        <polygon id="path40" fill="#F680C5" points="57.0725644 49.9948695 82.5245512 49.9948695 82.5245512 57.6859725 57.0725644 57.6859725"></polygon>
                        <polygon id="path42" fill="#F680C5" points="57.0725644 59.9908589 82.5245512 59.9908589 82.5245512 67.6830201 57.0725644 67.6830201"></polygon>
                        <polygon id="path44" fill="#B2DB18" points="85.6085745 0.00529909818 111.0595 0.00529909818 111.0595 7.69640208 85.6085745 7.69640208"></polygon>
                        <polygon id="path46" fill="#B2DB18" points="85.6085745 10.0014971 111.0595 10.0014971 111.0595 17.6936583 85.6085745 17.6936583"></polygon>
                        <polygon id="path48" fill="#B2DB18" points="85.6085745 19.9987346 111.0595 19.9987346 111.0595 27.6908958 85.6085745 27.6908958"></polygon>
                        <polygon id="path50" fill="#D9ED84" points="85.6085745 29.9980069 111.0595 29.9980069 111.0595 37.6869666 85.6085745 37.6869666"></polygon>
                        <polygon id="path52" fill="#D9ED84" points="85.6085745 39.9975234 111.0595 39.9975234 111.0595 47.6864831 85.6085745 47.6864831"></polygon>
                        <polygon id="path54" fill="#59CAF5" points="114.144857 0.00529909818 139.597905 0.00529909818 139.597905 7.69640208 114.144857 7.69640208"></polygon>
                        <polygon id="path56" fill="#59CAF5" points="114.144857 10.0014971 139.597905 10.0014971 139.597905 17.6936583 114.144857 17.6936583"></polygon>
                        <polygon id="path58" fill="#59CAF5" points="114.144857 20.0019361 139.597905 20.0019361 139.597905 27.6930391 114.144857 27.6930391"></polygon>
                        <polygon id="path60" fill="#B2E6FA" points="114.144857 29.9980069 139.597905 29.9980069 139.597905 37.6901681 114.144857 37.6901681"></polygon>
                        <polygon id="path62" fill="#B2E6FA" points="114.144857 39.9975234 139.597905 39.9975234 139.597905 47.6896846 114.144857 47.6896846"></polygon>
                        <polygon id="path64" fill="#B2E6FA" points="114.144857 49.9967686 139.597905 49.9967686 139.597905 57.6857283 114.144857 57.6857283"></polygon>
                        <polygon id="path66" fill="#B2E6FA" points="114.144857 59.9962852 139.597905 59.9962852 139.597905 67.6852449 114.144857 67.6852449"></polygon>
                        <polygon id="path68" fill="#B2E6FA" points="114.144857 69.9933599 139.597905 69.9933599 139.597905 77.6844629 114.144857 77.6844629"></polygon>
                    </g>
                </g>
            </g>
        </g>
    </g>
</svg>