<?xml version="1.0" encoding="UTF-8"?>
<svg width="37px" height="37px" viewBox="0 0 37 37" version="1.1" xmlns="http://www.w3.org/2000/svg" xmlns:xlink="http://www.w3.org/1999/xlink">
    <!-- Generator: Sketch 51 (57462) - http://www.bohemiancoding.com/sketch -->
    <title>icon/sharing/twitter</title>
    <desc>Created with Sketch.</desc>
    <defs>
        <ellipse id="path-1" cx="18.0331008" cy="18.5" rx="18.0331008" ry="18.5"></ellipse>
        <path d="M19.156775,1.67462753 C18.4516734,1.95861687 17.6941177,2.15063813 16.8992392,2.23654239 C17.7102574,1.79489348 18.3346607,1.09553183 18.6271922,0.2617553 C17.8686279,0.67005314 17.0263391,0.968191416 16.1315963,1.12787225 C15.4153986,0.433563797 14.3935561,0 13.2627706,0 C11.0929943,0 9.33276195,1.59882966 9.33276195,3.57159547 C9.33276195,3.85154226 9.36705874,4.12340394 9.4346436,4.38616987 C6.16837865,4.23659542 3.27231731,2.81462744 1.33353991,0.653882928 C0.995615656,1.18042544 0.800930932,1.79489348 0.800930932,2.44877641 C0.800930932,3.6888295 1.4959453,4.78234005 2.55006725,5.42207406 C1.90548933,5.40388257 1.30025186,5.24319108 0.770669058,4.97537196 C0.769660329,4.99053154 0.769660329,5.0056911 0.769660329,5.01984004 C0.769660329,6.75106332 2.12438356,8.19425469 3.9229476,8.52271212 C3.59208445,8.60457381 3.24508163,8.64803126 2.88698278,8.64803126 C2.63379177,8.64803126 2.38766186,8.62579721 2.14758433,8.58436104 C2.64791398,10.0032971 4.0994752,11.0361694 5.81935837,11.0644672 C4.47371371,12.0225523 2.77904876,12.5935628 0.938118094,12.5935628 C0.620368417,12.5935628 0.307662385,12.576382 0,12.543031 C1.73904903,13.5567011 3.8049263,14.1479245 6.02413039,14.1479245 C13.253692,14.1479245 17.2079103,8.70563763 17.2079103,3.98595714 C17.2079103,3.83031885 17.2028667,3.67670185 17.1958056,3.52409548 C17.9634484,3.019787 18.6302184,2.39117003 19.156775,1.67462753 Z" id="path-3"></path>
    </defs>
    <g id="icon/sharing/twitter" stroke="none" stroke-width="1" fill="none" fill-rule="evenodd">
        <mask id="mask-2" fill="white">
            <use xlink:href="#path-1"></use>
        </mask>
        <use id="Mask" fill="#50ABF1" xlink:href="#path-1"></use>
        <g id="icon/social/logo/twitter" mask="url(#mask-2)">
            <g transform="translate(2.717438, 2.468254)" id="color/black">
                <g transform="translate(7.133823, 10.289999)">
                    <mask id="mask-4" fill="white">
                        <use xlink:href="#path-3"></use>
                    </mask>
                    <use id="Mask" fill="#FFFFFF" fill-rule="nonzero" xlink:href="#path-3"></use>
                    <g id="color/white" mask="url(#mask-4)" fill="#FFFFFF">
                        <g transform="translate(0.000000, -2.756250)" id="Rectangle-8">
                            <rect x="0" y="0" width="20.9542819" height="20.9542819"></rect>
                        </g>
                    </g>
                </g>
            </g>
        </g>
    </g>
</svg>