<?xml version="1.0" encoding="UTF-8"?>
<svg width="286px" height="286px" viewBox="0 0 286 286" version="1.1" xmlns="http://www.w3.org/2000/svg" xmlns:xlink="http://www.w3.org/1999/xlink">
    <!-- Generator: Sketch 48.2 (47327) - http://www.bohemiancoding.com/sketch -->
    <title>tidal copy</title>
    <desc>Created with Sketch.</desc>
    <defs></defs>
    <g id="Page-1" stroke="none" stroke-width="1" fill="none" fill-rule="evenodd">
        <g id="tidal-copy">
            <circle id="Oval" fill="#000000" cx="146" cy="143" r="140"></circle>
            <g id="link" transform="translate(86.000000, 83.000000)" fill="#FFFFFF" fill-rule="nonzero">
                <path d="M43.947,95.2065 L37.875,101.2365 C32.6115,106.4535 24.051,106.458 18.7905,101.2365 C16.2615,98.727 14.8725,95.394 14.8725,91.851 C14.8725,88.308 16.263,84.9735 18.789,82.464 L41.139,60.2895 C45.771,55.6965 54.4845,48.933 60.8355,55.2315 C63.75,58.1265 68.457,58.107 71.3505,55.194 C74.2455,52.281 74.2275,47.5725 71.313,44.6805 C60.5175,33.9675 44.562,35.9475 30.666,49.7355 L8.3145,71.9115 C2.952,77.235 0,84.315 0,91.851 C0,99.387 2.952,106.4655 8.316,111.789 C13.8345,117.264 21.081,120 28.3305,120 C35.5815,120 42.831,117.264 48.3525,111.786 L54.429,105.7545 C57.342,102.8625 57.3585,98.1555 54.4635,95.241 C51.573,92.3295 46.8615,92.313 43.947,95.2065 Z M111.681,9.066 C100.086,-2.439 83.874,-3.063 73.14,7.587 L65.571,15.1005 C62.6565,17.994 62.6385,22.6995 65.5335,25.614 C68.4285,28.5285 73.1355,28.545 76.05,25.6515 L83.616,18.1425 C89.1765,12.621 96.4575,14.91 101.2065,19.6215 C103.7385,22.131 105.129,25.4655 105.129,29.0085 C105.129,32.553 103.737,35.8875 101.2095,38.397 L77.364,62.052 C66.4605,72.87 61.3455,67.7925 59.163,65.6265 C56.2485,62.733 51.543,62.751 48.648,65.664 C45.753,68.577 45.771,73.2855 48.6855,76.1775 C53.691,81.1455 59.4045,83.6085 65.394,83.6085 C72.7275,83.6085 80.4735,79.9155 87.8385,72.603 L111.684,48.948 C117.045,43.6245 120,36.543 120,29.007 C120,21.474 117.045,14.3925 111.681,9.066 Z" id="Shape"></path>
            </g>
        </g>
    </g>
</svg>