<?xml version="1.0" encoding="UTF-8"?>
<svg width="37px" height="37px" viewBox="0 0 37 37" version="1.1" xmlns="http://www.w3.org/2000/svg" xmlns:xlink="http://www.w3.org/1999/xlink">
    <!-- Generator: Sketch 51 (57462) - http://www.bohemiancoding.com/sketch -->
    <title>icon/sharing/whatsapp</title>
    <desc>Created with Sketch.</desc>
    <defs>
        <circle id="path-1" cx="18.5" cy="18.5" r="18.5"></circle>
        <linearGradient x1="50.0007039%" y1="100.002858%" x2="50.0007039%" y2="0.00300051009%" id="linearGradient-3">
            <stop stop-color="#F9F9F9" offset="0%"></stop>
            <stop stop-color="#FFFFFF" offset="100%"></stop>
        </linearGradient>
    </defs>
    <g id="icon/sharing/whatsapp" stroke="none" stroke-width="1" fill="none" fill-rule="evenodd">
        <mask id="mask-2" fill="white">
            <use xlink:href="#path-1"></use>
        </mask>
        <use id="Mask" fill="#1CD741" xlink:href="#path-1"></use>
        <path d="M8.09933575,18.4088106 C8.0986846,20.303936 8.59386863,22.1541631 9.53515238,23.7848286 L8.00898094,29.3568117 L13.7115041,27.8616164 C15.2827289,28.7184367 17.0515932,29.1699936 18.8518678,29.1707378 L18.8564621,29.1707378 C24.7847173,29.1707378 29.6109786,24.3460268 29.6134592,18.4171515 C29.6144514,15.5435648 28.496396,12.8417576 26.4656143,10.8092396 C24.4345226,8.77672157 21.7339247,7.65674366 18.8564621,7.65550338 C12.9269667,7.65550338 8.10163555,12.4792842 8.09915498,18.4084695 L8.09933575,18.4088106 Z M11.495057,23.5038729 L11.2821899,23.165771 C10.3870757,21.7426673 9.91465094,20.0979246 9.91530209,18.4092757 C9.91725554,13.4813109 13.9279361,9.47177762 18.8596217,9.47177762 C21.2478537,9.47270784 23.4923986,10.4037592 25.1807373,12.0929972 C26.8688901,13.7823592 27.797802,16.0281134 27.7971508,18.4162833 C27.7949633,23.3445582 23.7842068,27.3544016 18.856242,27.3544016 L18.8527416,27.3544016 C17.2481531,27.3534713 15.6745097,26.9227512 14.3021337,26.1083796 L13.9755045,25.9147648 L10.5913852,26.8020032 L11.495057,23.5038729 Z M18.8564621,29.1707378 L18.8565715,29.1707378 L18.8564621,29.1707378 C18.8563527,29.1707378 18.8562433,29.1707378 18.8564621,29.1707378 Z M16.1680138,13.9127753 L16.1678525,13.9126916 C16.4068556,14.4441849 16.9291832,15.7733494 16.9964563,15.907784 C17.0636209,16.0422309 17.1084696,16.1992015 17.0187722,16.3785964 C16.9291832,16.5578859 16.884443,16.6698992 16.7503372,16.8268666 C16.6158995,16.9837317 16.4677908,17.1771202 16.3470273,17.297555 C16.2122641,17.4315679 16.0722482,17.5771557 16.2289986,17.8459163 C16.3858637,18.1150273 16.9252639,18.9948238 17.7243179,19.7072439 C18.7512434,20.6227917 19.6169225,20.9063303 19.8857947,21.0412021 C20.1545646,21.1756397 20.3114204,21.1532154 20.4681708,20.9736034 C20.6250359,20.7943201 21.1398009,20.1890825 21.3189757,19.9203219 C21.498259,19.6512295 21.6774462,19.6959697 21.923894,19.7855586 C22.1702147,19.8752623 23.4916057,20.5255564 23.7604779,20.659991 C24.0292447,20.7943108 24.208528,20.8615839 24.2756926,20.9735972 C24.3428571,21.0859361 24.3428571,21.623879 24.1188336,22.2514325 C23.8949311,22.879079 22.7974644,23.4843105 22.3046679,23.5290507 C21.8118714,23.573918 21.349834,23.751992 19.0793052,22.8566608 C16.3475451,21.7793798 14.6225125,18.9788614 14.4880779,18.7996866 C14.353879,18.6201863 13.3906112,17.342351 13.3906112,16.0198655 C13.3906112,14.697504 14.084982,14.0473091 14.3314298,13.7783283 C14.5776575,13.50936 14.8688456,13.4420869 15.0481289,13.4420869 C15.2271951,13.4420869 15.4064691,13.4416528 15.5632195,13.4483193 C15.7547506,13.4561951 15.9666348,13.4651562 16.1680138,13.9127753 Z" id="Combined-Shape" fill="url(#linearGradient-3)" fill-rule="nonzero" mask="url(#mask-2)"></path>
    </g>
</svg>