<?xml version="1.0" encoding="UTF-8"?>
<svg width="286px" height="286px" viewBox="0 0 286 286" version="1.1" xmlns="http://www.w3.org/2000/svg" xmlns:xlink="http://www.w3.org/1999/xlink">
    <!-- Generator: Sketch 48.2 (47327) - http://www.bohemiancoding.com/sketch -->
    <title>soundcloud</title>
    <desc>Created with Sketch.</desc>
    <defs>
        <circle id="path-1" cx="144" cy="144" r="140.93617"></circle>
        <linearGradient x1="51.2708333%" y1="99.1520833%" x2="49.1520833%" y2="-0.422916667%" id="linearGradient-3">
            <stop stop-color="#FF433A" offset="0%"></stop>
            <stop stop-color="#FF9436" offset="100%"></stop>
        </linearGradient>
    </defs>
    <g id="Page-1" stroke="none" stroke-width="1" fill="none" fill-rule="evenodd">
        <g id="soundcloud">
            <g id="Antu_soundcloud" transform="translate(-1.000000, -1.000000)">
                <g id="Rectangle-path">
                    <mask id="mask-2" fill="white">
                        <use xlink:href="#path-1"></use>
                    </mask>
                    <use id="Mask" fill="#D8D8D8" xlink:href="#path-1"></use>
                    <rect fill="url(#linearGradient-3)" mask="url(#mask-2)" x="1.01408451" y="1.01408451" width="288" height="288" rx="14.8599205"></rect>
                </g>
                <path d="M33.0625392,154.751201 C32.5883946,154.751201 32.2102792,155.116362 32.1502609,155.643151 L30.4817518,168.280107 L32.1502609,180.695573 C32.1562627,181.216376 32.5883946,181.581536 33.0625392,181.581536 C33.5246802,181.581536 33.8967938,181.222362 33.9748176,180.695573 L35.9494201,168.274121 L33.9748176,155.637165 C33.9027956,155.116362 33.5246802,154.751201 33.0625392,154.751201 Z M42.4434014,147.849064 C42.3653776,147.304316 41.9752586,146.933169 41.4951121,146.933169 C41.0149656,146.933169 40.6128429,147.322275 40.5468228,147.849064 C40.5468228,147.849663 38.3021379,168.280107 38.3021379,168.280107 L40.5468228,188.256196 C40.6128429,188.794958 41.0089638,189.178077 41.4951121,189.178077 C41.9752586,189.178077 42.3653776,188.800944 42.4434014,188.262182 L44.9941797,168.280107 L42.4434014,147.849064 Z M77.7701799,129.004375 C76.8518997,129.004375 76.0896671,129.752656 76.0476543,130.710454 L74.2591086,168.298066 L76.0476543,192.590235 C76.095669,193.542047 76.8518997,194.290328 77.7701799,194.290328 C78.6824582,194.290328 79.4446908,193.542047 79.4987073,192.590235 L79.4987073,192.590834 L81.5153226,168.298665 L79.4987073,130.711053 C79.4446908,129.75924 78.6884601,129.004974 77.7701799,129.004974 L77.7701799,129.004375 Z M59.4826002,142.066953 C58.7743841,142.066953 58.1982083,142.62966 58.1441918,143.37794 L56.1335784,168.280706 L58.1441918,192.345398 C58.1982083,193.093678 58.7743841,193.656385 59.4826002,193.656385 C60.1788126,193.656385 60.7609902,193.093678 60.8210086,192.345398 L63.1077062,168.280706 L60.8210086,143.371954 C60.8150067,142.623674 60.1848145,142.060967 59.4826002,142.060967 L59.4826002,142.066953 Z M96.3518493,194.272967 C97.4921972,194.272967 98.4224811,193.357073 98.4644939,192.183769 L100.217029,168.304651 L98.4704957,118.265656 C98.4224811,117.092353 97.498199,116.176458 96.3578511,116.176458 C95.2054995,116.176458 94.2752157,117.098339 94.2392047,118.271643 C94.2392047,118.271643 92.6847304,168.304651 92.6847304,168.304651 L94.2392047,192.195742 C94.2752157,193.363059 95.2054995,194.278954 96.3518493,194.278954 L96.3518493,194.272967 Z M134.391455,194.386706 C135.963935,194.386706 137.254329,193.099664 137.284338,191.51331 L137.284338,191.531269 L137.284338,191.51331 L138.508712,168.316623 L137.284338,110.525446 C137.254329,108.945078 135.957933,107.65205 134.391455,107.65205 C132.818976,107.65205 131.52258,108.939092 131.498573,110.531432 L130.40624,168.304651 C130.40624,168.340568 131.498573,191.537255 131.498573,191.537255 C131.52258,193.10565 132.824978,194.398679 134.391455,194.398679 L134.391455,194.386706 Z M115.227608,194.308885 C116.596026,194.308885 117.694361,193.213403 117.730372,191.818608 L117.730372,191.836567 L119.218826,168.316623 L117.730372,117.912468 C117.694361,116.517674 116.590024,115.428178 115.227608,115.428178 C113.853189,115.428178 112.748852,116.517674 112.718843,117.912468 L111.39844,168.316623 L112.724845,191.830581 C112.754854,193.207416 113.853189,194.302899 115.23361,194.302899 L115.227608,194.308885 Z M68.5993818,194.081408 C69.409629,194.081408 70.0698304,193.434894 70.1298488,192.578861 L72.2845062,168.286692 L70.1298488,145.173813 C70.1238469,144.31778 69.4156308,143.677252 68.5993818,143.677252 C67.7771309,143.677252 67.1169295,144.323767 67.0689148,145.185785 L65.1723362,168.286692 L67.0689148,192.578861 C67.1229313,193.434894 67.7771309,194.081408 68.5993818,194.081408 Z M50.4738516,192.752462 C51.0680329,192.752462 51.5481794,192.285535 51.6141995,191.639021 L54.0329375,168.280706 L51.6141995,144.042413 C51.5421775,143.395899 51.062031,142.928972 50.4678497,142.928972 C49.8676666,142.928972 49.3875201,143.395899 49.3275018,144.042413 C49.3275018,144.042413 47.1968517,168.280706 47.1968517,168.280706 L49.3275018,191.633035 C49.3335036,192.279549 49.8676666,192.752462 50.4678497,192.752462 L50.4738516,192.752462 Z M124.788526,117.068408 C123.306073,117.068408 122.117711,118.247698 122.087701,119.750244 L120.881333,168.310637 L122.087701,191.680925 C122.117711,193.165513 123.306073,194.344802 124.788526,194.344802 C126.270978,194.344802 127.453339,193.171499 127.48935,191.662966 L127.48935,191.680925 L128.845763,168.310637 L127.48935,119.738272 C127.453339,118.235725 126.270978,117.062422 124.788526,117.062422 L124.788526,117.068408 Z M87.0430091,194.320857 C88.0693222,194.320857 88.9155804,193.48877 88.9635951,192.423219 L90.8481701,168.298665 L88.9635951,122.11481 C88.9095786,121.049259 88.0693222,120.217171 87.0430091,120.217171 C86.0106941,120.217171 85.1644359,121.049259 85.1224231,122.11481 C85.1224231,122.11481 83.453914,168.298665 83.453914,168.298665 L85.1224231,192.423219 C85.1644359,193.476797 86.0106941,194.308885 87.0430091,194.308885 L87.0430091,194.320857 Z M108.079427,192.034113 L108.079427,192.022141 L109.699922,168.292678 L108.079427,116.565564 C108.043416,115.278522 107.023105,114.272833 105.768722,114.272833 C104.508338,114.272833 103.494028,115.278522 103.458017,116.565564 L102.02358,168.286692 L103.464019,192.028127 C103.50003,193.303196 104.51434,194.302899 105.774724,194.302899 C107.029107,194.302899 108.043416,193.29721 108.085429,192.016154 L108.079427,192.034113 Z M230.516784,138.475208 C226.675612,138.475208 223.008493,139.25342 219.665473,140.648214 C217.432792,115.428178 196.234324,95.649635 170.372434,95.649635 C164.046503,95.649635 157.876621,96.8947733 152.426958,98.9959442 C150.308312,99.810073 149.74414,100.654133 149.726134,102.288377 L149.726134,191.094273 C149.750142,192.806338 151.082548,194.231064 152.757059,194.404665 C152.829081,194.405263 230.018632,194.452555 230.516784,194.452555 C246.00751,194.452555 258.569343,181.923351 258.569343,166.472861 C258.569343,151.016385 246.013512,138.487181 230.516784,138.487181 L230.516784,138.475208 Z M143.988384,102.210556 C142.301869,102.210556 140.921448,103.587392 140.89744,105.287484 L139.631054,168.316623 L140.89744,191.190053 C140.921448,192.860214 142.301869,194.23705 143.988384,194.23705 C145.668896,194.23705 147.049317,192.860214 147.079327,191.166108 L147.079327,191.196039 L148.453746,168.316623 L147.079327,105.281498 C147.055319,103.593378 145.668896,102.210556 143.988384,102.210556 Z" id="Shape" fill="#FFFFFF" fill-rule="nonzero"></path>
            </g>
        </g>
    </g>
</svg>