<?xml version="1.0" encoding="UTF-8"?>
<svg width="37px" height="37px" viewBox="0 0 37 37" version="1.1" xmlns="http://www.w3.org/2000/svg" xmlns:xlink="http://www.w3.org/1999/xlink">
    <!-- Generator: Sketch 51 (57462) - http://www.bohemiancoding.com/sketch -->
    <title>icon/sharing/vk</title>
    <desc>Created with Sketch.</desc>
    <defs>
        <circle id="path-1" cx="18.5" cy="18.5" r="18.5"></circle>
        <path d="M9.35013661,11.71058 L10.491888,11.71058 C10.491888,11.71058 10.8367401,11.6699865 11.0137365,11.4650388 C11.1757754,11.2769226 11.1707897,10.9234622 11.1707897,10.9234622 C11.1707897,10.9234622 11.1475225,9.27100964 11.858832,9.02744868 C12.5610007,8.78784801 13.4609401,10.6244564 14.4157235,11.3313774 C15.1370045,11.8660234 15.6854441,11.7491933 15.6854441,11.7491933 L18.2381807,11.71058 C18.2381807,11.71058 19.572717,11.6214724 18.9395186,10.4898048 C18.8879985,10.3967367 18.5705684,9.65219256 17.0415855,8.12152064 C15.4419702,6.51956245 15.6563602,6.77896489 17.5833773,4.00771593 C18.7575364,2.3196204 19.2270338,1.28894151 19.0799523,0.847363493 C18.9403495,0.427567322 18.0769728,0.538456876 18.0769728,0.538456876 L15.2034821,0.557268481 C15.2034821,0.557268481 14.990754,0.526575788 14.8328699,0.628554623 C14.6783097,0.727563219 14.5794243,0.960233251 14.5794243,0.960233251 C14.5794243,0.960233251 14.1240534,2.26714586 13.517446,3.37802161 C12.2385848,5.72155372 11.7267078,5.8453144 11.5173037,5.69977187 C11.0311868,5.36017256 11.1525083,4.33741436 11.1525083,3.60970161 C11.1525083,1.33844581 11.4716004,0.391924186 10.5309435,0.146383029 C10.2184991,0.065196001 9.98832084,0.0117314265 9.18975956,0.00282070716 C8.16434393,-0.00906038118 7.29681229,0.00579094694 6.80487861,0.265193266 C6.47830784,0.438458244 6.22569331,0.823601446 6.38025347,0.84538329 C6.56971442,0.873105744 6.99932543,0.970134007 7.22784182,1.30478287 C7.52200484,1.73745017 7.5120332,2.70773384 7.5120332,2.70773384 C7.5120332,2.70773384 7.68071996,5.38096437 7.11649196,5.71363304 C6.72926045,5.94135263 6.19827133,5.47601256 5.05735087,3.35029929 C4.4731797,2.26021534 4.03193523,1.05726151 4.03193523,1.05726151 C4.03193523,1.05726151 3.94634543,0.831522128 3.79510901,0.711721725 C3.61063394,0.565189164 3.35303353,0.518655105 3.35303353,0.518655105 L0.622469483,0.538456876 C0.622469483,0.538456876 0.212801783,0.551328001 0.0623963999,0.743404584 C-0.071389601,0.91468923 0.0515937984,1.2681497 0.0515937984,1.2681497 C0.0515937984,1.2681497 2.18967697,6.6631249 4.61028962,9.38189932 C6.82980776,11.8749342 9.35013661,11.71058 9.35013661,11.71058 Z" id="path-3"></path>
    </defs>
    <g id="icon/sharing/vk" stroke="none" stroke-width="1" fill="none" fill-rule="evenodd">
        <mask id="mask-2" fill="white">
            <use xlink:href="#path-1"></use>
        </mask>
        <use id="Mask" fill="#44678D" xlink:href="#path-1"></use>
        <g id="icon/social/logo/vk" mask="url(#mask-2)">
            <g transform="translate(0.880952, 1.468254)" id="color/black">
                <g transform="translate(7.349999, 11.759999)">
                    <mask id="mask-4" fill="white">
                        <use xlink:href="#path-3"></use>
                    </mask>
                    <use id="Mask" fill="#D8D8D8" xlink:href="#path-3"></use>
                    <g id="color/white" mask="url(#mask-4)" fill="#FFFFFF">
                        <g transform="translate(-1.470000, -7.349999)" id="Rectangle-8">
                            <rect x="0" y="0" width="21.9643409" height="24.9594783"></rect>
                        </g>
                    </g>
                </g>
            </g>
        </g>
    </g>
</svg>