<?xml version="1.0" encoding="UTF-8"?>
<svg width="40px" height="40px" viewBox="0 0 40 40" version="1.1" xmlns="http://www.w3.org/2000/svg" xmlns:xlink="http://www.w3.org/1999/xlink">
    <!-- Generator: Sketch 48.2 (47327) - http://www.bohemiancoding.com/sketch -->
    <title>Combined Shape</title>
    <desc>Created with Sketch.</desc>
    <defs></defs>
    <g id="Page-1" stroke="none" stroke-width="1" fill="none" fill-rule="evenodd">
        <path d="M20,39 C30.4934102,39 39,30.4934102 39,20 C39,9.50658975 30.4934102,1 20,1 C9.50658975,1 1,9.50658975 1,20 C1,30.4934102 9.50658975,39 20,39 Z M14.7993599,12.6666667 L20.80032,12.6666667 C21.5733419,12.6666667 22.2,13.2933247 22.2,14.0663466 L22.2,16.0336534 C22.2,16.8066753 22.8266581,17.4333333 23.59968,17.4333333 L24.20032,17.4333333 C24.9733419,17.4333333 25.6,18.0599914 25.6,18.8330133 L25.6,28.2006401 C25.6,29.7466839 24.3466839,31 22.8006401,31 L14.7993599,31 C13.2533161,31 12,29.7466839 12,28.2006401 L12,15.4660266 C12,13.9199828 13.2533161,12.6666667 14.7993599,12.6666667 Z M14.7993599,12.6666667 L20.8232302,12.6666667 C21.7391634,12.6666667 22.5971631,13.1147478 23.1205459,13.8664152 L25.0979558,16.7063142 C25.4247922,17.1757073 25.6,17.7339536 25.6,18.3059256 L25.6,28.2006401 C25.6,29.7466839 24.3466839,31 22.8006401,31 L14.7993599,31 C13.2533161,31 12,29.7466839 12,28.2006401 L12,15.4660266 C12,13.9199828 13.2533161,12.6666667 14.7993599,12.6666667 Z M15.4,11.9333333 C15.4,10.3132981 16.6177855,9 18.12,9 L24.20032,9 C24.9733419,9 25.6,9.62665806 25.6,10.39968 L25.6,12.3 C25.6,13.1100176 26.2088927,13.7666667 26.96,13.7666667 L27.60032,13.7666667 C28.3733419,13.7666667 29,14.3933247 29,15.1663466 L29,24.4 C29,26.0200353 27.7822145,27.3333333 26.28,27.3333333 M15.4,11.9333333 C15.4,10.3132981 16.6177855,9 18.12,9 L24.2232302,9 C25.1391634,9 25.9971631,9.44808118 26.5205459,10.1997485 L28.4979558,13.0396475 C28.8247922,13.5090406 29,14.0672869 29,14.6392589 L29,24.4 C29,26.0200353 27.7822145,27.3333333 26.28,27.3333333" id="Combined-Shape" stroke="#B51C40"></path>
    </g>
</svg>