<?xml version="1.0" encoding="UTF-8"?>
<svg width="26px" height="33px" viewBox="0 0 26 33" version="1.1" xmlns="http://www.w3.org/2000/svg" xmlns:xlink="http://www.w3.org/1999/xlink">
    <!-- Generator: Sketch 48.2 (47327) - http://www.bohemiancoding.com/sketch -->
    <title>Artboard</title>
    <desc>Created with Sketch.</desc>
    <defs></defs>
    <g id="Page-1" stroke="none" stroke-width="1" fill="none" fill-rule="evenodd">
        <g id="Artboard" fill="#3c3c3c" fill-rule="nonzero">
            <path d="M6.73771468,14.4992969 C6.20383497,13.8887631 5.43912643,13.5339354 4.61290323,13.5339354 C3.05496133,13.5339354 1.79199989,14.7968968 1.79199989,16.3548387 C1.79199989,17.9127806 3.05496133,19.175742 4.61290323,19.175742 C5.29009649,19.175742 5.9259365,18.9385996 6.43188293,18.5110794 L6.83326118,18.1719184 L7.08591453,17.713715 C7.31320125,17.3015156 7.43380656,16.8389603 7.43380656,16.3548387 C7.43380656,16.0175137 7.37536367,15.6908573 7.26262503,15.3834742 L7.08327385,14.8944713 L6.73771468,14.4992969 Z M18.737375,27.1254097 C18.6246363,27.4327928 18.5661934,27.7594492 18.5661934,28.0967742 C18.5661934,29.6547161 19.8291549,30.9176775 21.3870968,30.9176775 C22.9450387,30.9176775 24.2080001,29.6547161 24.2080001,28.0967742 C24.2080001,26.5388323 22.9450387,25.2758709 21.3870968,25.2758709 C20.5608736,25.2758709 19.796165,25.6306985 19.2622853,26.2412324 L18.9167262,26.6364068 L18.737375,27.1254097 Z M19.5681171,6.76914393 C20.0740635,7.19666411 20.7099035,7.43380656 21.3870968,7.43380656 C22.9450387,7.43380656 24.2080001,6.17084512 24.2080001,4.61290323 C24.2080001,3.05496133 22.9450387,1.79199989 21.3870968,1.79199989 C19.8291549,1.79199989 18.5661934,3.05496133 18.5661934,4.61290323 C18.5661934,5.09702485 18.6867988,5.55958009 18.9140855,5.97177949 L19.1667388,6.42998293 L19.5681171,6.76914393 Z M4.61290323,20.9677419 C2.06526712,20.9677419 0,18.9024748 0,16.3548387 C0,13.8072026 2.06526712,11.7419355 4.61290323,11.7419355 C5.99834564,11.7419355 7.24113485,12.3527065 8.08670143,13.319679 L17.3448352,6.83706397 C16.981144,6.17748612 16.7741935,5.41936261 16.7741935,4.61290323 C16.7741935,2.06526712 18.8394607,0 21.3870968,0 C23.9347329,0 26,2.06526712 26,4.61290323 C26,7.16053933 23.9347329,9.22580645 21.3870968,9.22580645 C20.2531464,9.22580645 19.2147597,8.81664987 18.4115165,8.13791663 L8.94503555,14.7664179 C9.12666685,15.2616376 9.22580645,15.7966605 9.22580645,16.3548387 C9.22580645,17.1612981 9.01885597,17.9194216 8.65516478,18.5789995 L17.9132986,25.0616145 C18.7588652,24.094642 20.0016544,23.483871 21.3870968,23.483871 C23.9347329,23.483871 26,25.5491381 26,28.0967742 C26,30.6444103 23.9347329,32.7096774 21.3870968,32.7096774 C18.8394607,32.7096774 16.7741935,30.6444103 16.7741935,28.0967742 C16.7741935,27.538596 16.8733331,27.0035731 17.0549644,26.5083534 L7.58848351,19.8798521 C6.78524033,20.5585854 5.7468536,20.9677419 4.61290323,20.9677419 Z" id="share"></path>
        </g>
    </g>
</svg>